<?xml version="1.0" encoding="UTF-8"?>
<svg xmlns="http://www.w3.org/2000/svg" version="1.1" xmlns:xlink="http://www.w3.org/1999/xlink" viewBox="0 0 446.3 341.3">
  <defs>
    <style>
      .cls-1 {
        fill: #f60708;
      }
    </style>
  </defs>
  <!-- Generator: Adobe Illustrator 28.6.0, SVG Export Plug-In . SVG Version: 1.2.0 Build 709)  -->
  <g>
    <g id="Layer_1">
      <image width="1194" height="990" transform="translate(-14.5 -14.2) scale(.4)" xlink:href="Asset 6-1.png"/>
      <path class="cls-1" d="M312.4,103.3c-15.1-2.9-43.6-2-70.8-2.3l-9-27.9-8,26.1c-20.6-.8-39.4-52.9,9.8-52.9,8.8-.2,64.3,0,64.3,0l.2-40.5c-31.5-.2-66.5-1.3-83.2,1.4-61,9.2-71,111.4-2,131.8l-26.5,93.6S127.8,0,125.5,0c-1.4-.1-106.1,339.4-106.1,339.4h43.6s60.7-194.6,62.5-195.2c1.9-.6,45.7,195.2,45.7,195.2h167c96.7-30.8,100.2-222.9-25.7-236.1ZM207.6,301.7l24.9-89.6,24,89.6h-48.9ZM350.7,283.5c-10.5,13.6-34.2,21.1-57.8,18.2l-41.1-158.9c39.2-3.5,79.5.5,97.5,20.3,23.8,26.2,26.9,87.5,1.4,120.5Z"/>
    </g>
  </g>
</svg>