<?xml version="1.0" encoding="UTF-8"?>
<svg xmlns="http://www.w3.org/2000/svg" version="1.1" viewBox="0 0 446.3 354.2">
  <defs>
    <style>
      .cls-1 {
        fill: #f60708;
      }
    </style>
  </defs>
  <!-- Generator: Adobe Illustrator 28.6.0, SVG Export Plug-In . SVG Version: 1.2.0 Build 709)  -->
  <g>
    <g id="Layer_1">
      <path class="cls-1" d="M112.5,20c.6,2.1.9,3.9,1.5,5.6,17.5,49.3,35.1,98.6,52.7,147.8,8.9,24.9,17.8,49.8,26.7,74.7.6,1.6.7,3.5,1.1,5.2.3,1.4.5,2.9,1.2,4.1,1.2,2.3,3.5,2.6,5.2.7,1.2-1.4,2.3-3,3-4.7,3.2-8.1,6.3-16.3,9.4-24.5,6.9-18.4,13.8-36.7,20.7-55.1.7-1.8,1.2-3.7,1.6-5.6.8-3.7-.4-5.8-4.1-6.5-3.8-.7-7.7-1.2-11.5-1.3-10-.3-19.2-3.7-27.9-8.2-19.8-10.1-30.8-26.8-35-48.4-5.2-26.4.9-49.4,20.3-68.3,5.3-5.1,11.8-8.9,17.7-13.5,2.1-1.6,4.2-2.1,6.7-2.1h122v13.4c0,5.2-.2,10.4-.3,15.7,0,1.2,0,2.4-.1,3.5-.4,3.4-2,5.3-5.4,5.7-2.3.3-4.7.3-7.1.3h-51.4c-7.6,0-15.2-.2-22.8.2-8.1.4-16.1,1.8-23.6,5-14.1,6-19.9,23.7-11.7,36,4.6,6.8,11.6,9.9,19.2,11.6,3.1.7,6.4,1,9.5,1,25.1.2,50.1.5,75.2.4,13.5,0,27-1,40.5-.7,44,.8,78.2,25.6,92.6,67.3,12.6,36.8,10.3,73-7.8,107.5-12.8,24.4-33.4,39.8-59.8,47.3-5.4,1.5-11.3,1.8-17,1.8-38,.2-75.9.2-113.9.3-16.6,0-33.2.2-49.9.3-10,0-14.9-3.3-18.3-12.7-15.9-44.8-31.8-89.5-47.8-134.3-3.5-9.8-7-19.5-10.6-29.2-.8-2.2-2.2-4.4-3.6-6.3-1.2-1.6-3-2.4-5.2-1.8-2.1.6-2.3,2.4-2.8,4.1-2.2,7.6-30.8,94.8-42.8,130.8-4.4,13.1-8.6,26.2-13.1,39.3-2.6,7.7-7.5,10.6-15.5,9.8-1.2-.1-2.4,0-3.5,0-6.5-.2-13-.1-19.5-.6-6.2-.5-8-3-6.9-9.1.6-3.1,1.4-6.2,2.5-9.3,14.6-43.4,29.2-86.9,43.8-130.3,18.5-55,36.9-110,55.4-165.1.5-1.5,1.2-2.2,2.8-2.1,2.7.1,5.4,0,7.7,0v.3ZM305,160.5v-.2h-1.3c-4.4,0-8.8-.2-13.2,0-3.4,0-4.6,1.7-3.9,4.9.3,1.4.8,2.8,1.3,4.1,8.8,23.7,17.6,47.4,26.4,71.1,4.8,13.1,9.4,26.3,14.3,39.4,2.7,7.4,7.7,10.5,15.2,10.1,10.2-.6,19.7-3.5,28.4-8.9,30.5-18.9,40.3-60.2,21.4-91.7-11.2-18.7-28.1-28.9-50-29.5-12.9-.3-25.7.4-38.6.7h0ZM262.3,220.1h-.8c-1.2,3-2.6,5.9-3.6,9-4.4,13.1-8.8,26.2-13.1,39.3-1.4,4.3-2.8,8.7-3.6,13.1-.7,3.5.9,5.3,4.4,6.2.9.2,1.8.5,2.7.5,11,.2,21.9.5,32.9.5s5.4-2.4,4.8-6.1c-.3-1.5-.6-3-1.1-4.4-6.1-16.9-12.2-33.9-18.4-50.8-1-2.6-2.7-4.9-4.1-7.4h0Z"/>
    </g>
  </g>
</svg>