<?xml version="1.0" encoding="UTF-8"?>
<svg id="Layer_2" xmlns="http://www.w3.org/2000/svg" viewBox="0 0 941.53 2061.21">
  <defs>
    <style>
      .cls-1 {
        font-size: 30.67px;
      }

      .cls-1, .cls-2 {
        font-family: Ubuntu-Regular, Ubuntu;
      }

      .cls-1, .cls-2, .cls-3 {
        fill: #fff;
      }

      .cls-4 {
        letter-spacing: -.03em;
      }

      .cls-5 {
        stroke-linecap: round;
        stroke-linejoin: round;
        stroke-width: 2.63px;
      }

      .cls-5, .cls-6, .cls-7, .cls-8 {
        fill: none;
      }

      .cls-5, .cls-7, .cls-3, .cls-8 {
        stroke: #000;
      }

      .cls-9 {
        letter-spacing: 0em;
      }

      .cls-10 {
        letter-spacing: -.03em;
      }

      .cls-11 {
        letter-spacing: -.06em;
      }

      .cls-12 {
        fill: #ecd233;
      }

      .cls-13 {
        font-size: 57.23px;
      }

      .cls-13, .cls-14, .cls-15 {
        fill: #1f1f1f;
      }

      .cls-13, .cls-15 {
        font-family: Ubuntu-BoldItalic, Ubuntu;
        font-style: italic;
        font-weight: 700;
      }

      .cls-2 {
        font-size: 45.57px;
      }

      .cls-16 {
        letter-spacing: .02em;
      }

      .cls-7 {
        stroke-width: 2.8px;
      }

      .cls-7, .cls-3, .cls-8 {
        stroke-miterlimit: 10;
      }

      .cls-3 {
        stroke-width: 2.2px;
      }

      .cls-17 {
        letter-spacing: -.01em;
      }

      .cls-8 {
        stroke-width: 2.62px;
      }

      .cls-18 {
        opacity: .38;
      }

      .cls-19 {
        letter-spacing: -.01em;
      }

      .cls-20 {
        letter-spacing: -.05em;
      }

      .cls-21 {
        letter-spacing: -.03em;
      }

      .cls-22 {
        letter-spacing: -.01em;
      }

      .cls-23 {
        letter-spacing: -.02em;
      }

      .cls-24 {
        letter-spacing: 0em;
      }

      .cls-15 {
        font-size: 69px;
      }
    </style>
  </defs>
  <g id="TEXTS">
    <g>
      <rect class="cls-12" x="453.36" y="0" width="373.98" height="1043.55"/>
      <g>
        <g>
          <circle cx="733.94" cy="429.78" r="5.3"/>
          <path d="M684.02,429.78c0,3.72,3.02,6.74,6.74,6.74s6.74-3.02,6.74-6.74c0-3.72-3.02-6.74-6.74-6.74s-6.74,3.02-6.74,6.74Z"/>
          <circle cx="647.57" cy="429.78" r="8.18"/>
          <path d="M594.77,429.78c0,5.31,4.31,9.62,9.62,9.62,5.31,0,9.62-4.31,9.62-9.62,0-5.31-4.31-9.62-9.62-9.62-5.31,0-9.62,4.31-9.62,9.62Z"/>
          <circle cx="561.2" cy="429.78" r="11.05"/>
        </g>
        <g>
          <circle cx="733.94" cy="383.3" r="5.3"/>
          <path d="M684.02,383.3c0,3.72,3.02,6.74,6.74,6.74s6.74-3.02,6.74-6.74c0-3.72-3.02-6.74-6.74-6.74s-6.74,3.02-6.74,6.74Z"/>
          <circle cx="647.57" cy="383.3" r="8.18"/>
          <path d="M594.77,383.3c0,5.31,4.31,9.62,9.62,9.62,5.31,0,9.62-4.31,9.62-9.62,0-5.31-4.31-9.62-9.62-9.62-5.31,0-9.62,4.31-9.62,9.62Z"/>
          <circle cx="561.2" cy="383.3" r="11.05"/>
        </g>
        <g>
          <circle cx="733.94" cy="336.81" r="5.3"/>
          <path d="M684.02,336.81c0,3.72,3.02,6.74,6.74,6.74s6.74-3.02,6.74-6.74c0-3.72-3.02-6.74-6.74-6.74s-6.74,3.02-6.74,6.74Z"/>
          <circle cx="647.57" cy="336.81" r="8.18"/>
          <path d="M594.77,336.81c0,5.31,4.31,9.62,9.62,9.62,5.31,0,9.62-4.31,9.62-9.62,0-5.31-4.31-9.62-9.62-9.62s-9.62,4.31-9.62,9.62Z"/>
          <circle cx="561.2" cy="336.81" r="11.05"/>
        </g>
        <g>
          <circle cx="733.94" cy="290.33" r="5.3"/>
          <path d="M684.02,290.33c0,3.72,3.02,6.74,6.74,6.74s6.74-3.02,6.74-6.74c0-3.72-3.02-6.74-6.74-6.74s-6.74,3.02-6.74,6.74Z"/>
          <circle cx="647.57" cy="290.33" r="8.18"/>
          <path d="M594.77,290.33c0,5.31,4.31,9.62,9.62,9.62,5.31,0,9.62-4.31,9.62-9.62,0-5.31-4.31-9.62-9.62-9.62-5.31,0-9.62,4.31-9.62,9.62Z"/>
          <circle cx="561.2" cy="290.33" r="11.05"/>
        </g>
        <g>
          <circle cx="733.94" cy="243.84" r="5.3"/>
          <path d="M684.02,243.84c0,3.72,3.02,6.74,6.74,6.74s6.74-3.02,6.74-6.74c0-3.72-3.02-6.74-6.74-6.74s-6.74,3.02-6.74,6.74Z"/>
          <circle cx="647.57" cy="243.84" r="8.18"/>
          <path d="M594.77,243.84c0,5.31,4.31,9.62,9.62,9.62,5.31,0,9.62-4.31,9.62-9.62,0-5.31-4.31-9.62-9.62-9.62-5.31,0-9.62,4.31-9.62,9.62Z"/>
          <circle cx="561.2" cy="243.84" r="11.05"/>
        </g>
      </g>
      <line class="cls-7" x1="387.9" y1="199.19" x2="919.72" y2="199.19"/>
      <line class="cls-7" x1="517.25" x2="517.25" y2="427.37"/>
      <text class="cls-15" transform="translate(456.29 601.84)"><tspan class="cls-4" x="0" y="0">40.000 </tspan><tspan class="cls-20" x="214.93" y="0">F</tspan><tspan class="cls-21" x="251.09" y="0">cfa</tspan></text>
      <text class="cls-13" transform="translate(139.35 601.84)"><tspan x="0" y="0">Insc</tspan><tspan class="cls-23" x="105.42" y="0">r</tspan><tspan x="128.94" y="0">iption</tspan></text>
      <text class="cls-13" transform="translate(139.35 730.8)"><tspan x="0" y="0">Mens</tspan><tspan class="cls-9" x="140.67" y="0">u</tspan><tspan x="173.35" y="0">ali</tspan><tspan class="cls-22" x="241.23" y="0">t</tspan><tspan x="264.18" y="0">e</tspan></text>
      <text class="cls-15" transform="translate(460.34 731.71)"><tspan class="cls-4" x="0" y="0">20.000 </tspan><tspan class="cls-20" x="214.93" y="0">F</tspan><tspan class="cls-21" x="251.09" y="0">cfa</tspan></text>
      <g class="cls-18">
        <g>
          <polygon class="cls-3" points="41.83 1441.17 42.14 1500.28 8.38 1528.74 8.17 1471.71 41.83 1441.17"/>
          <polygon class="cls-6" points="187.06 1306.79 144.13 1348.55 143.39 1438.66 185.89 1405.98 187.06 1306.79"/>
          <polygon class="cls-6" points="269.85 1353.43 269.26 1403.03 248.26 1393.53 248.26 1434.71 187.38 1405.16 188.33 1306.67 269.85 1353.43"/>
          <polygon class="cls-6" points="387.82 1491.61 389.03 1613.18 306.27 1643.23 307.33 1533.14 387.82 1491.61"/>
          <polygon class="cls-6" points="483.12 1541.61 483.97 1651.63 390.19 1613.21 389.18 1491.33 483.12 1541.61"/>
          <polygon class="cls-6" points="470.82 1290.64 375.02 1208.55 375.02 1476.22 395.49 1466.9 396.04 1404.55 413.96 1393.21 396.04 1382.24 395.13 1341.11 470.82 1290.64"/>
          <polygon class="cls-3" points="708.3 1200.42 651.41 1237.15 650.94 1349.52 705.72 1321.31 708.3 1200.42"/>
          <polyline class="cls-6" points="758.35 1376.13 759.79 1272.07 708.3 1200.42 706.96 1320.32 709.45 1319.03"/>
          <polygon class="cls-6" points="720.92 1555.13 608.13 1594.05 626.79 1603.71 626.73 1628 646.2 1618.79 701.25 1648.72 700.51 1723.35 686.59 1728.31 695.38 1731.47 695.29 1824.63 720.15 1832.69 720.92 1555.13"/>
          <line class="cls-8" x1="143.47" y1="1348.49" x2="142.59" y2="1440.78"/>
          <polyline class="cls-8" points="676.77 1206.59 555.86 1050.75 374.16 1206.59 471.94 1290.7 481.4 1284.45 481.49 1165.85 555.86 1105.07 555.8 1234.29 643.8 1319.74"/>
          <polyline class="cls-8" points="677.31 1150.43 676.34 1000.31 691.34 992.17 691.34 1170.5 556.16 983.81 335.82 1181.35 335.82 1188.43"/>
          <line class="cls-8" x1="556.8" y1="990.49" x2="689.59" y2="1176.04"/>
          <polyline class="cls-8" points="374.16 1206.59 374.16 1477.18 396.01 1466.79 396.01 1404.46 556.73 1310.96 556.73 1429.51 720.92 1555.13 720.92 1833.65 694.49 1825.19 694.49 1732.11 553.43 1679.5 553.54 1828.95"/>
          <polyline class="cls-8" points="585.4 1261.21 711.59 1184.94 765.99 1262.34 765.99 1274.11 709.91 1195.04 644.29 1235.42 644.29 1353.19 709.34 1320.1 765.99 1387.4 765.8 1396.75"/>
          <polyline class="cls-8" points="186.56 1405.71 187.6 1305.93 270.51 1352.96 270.12 1404"/>
          <polyline class="cls-8" points="187.6 1305.08 140.12 1351.84 136.02 1349.61 187.81 1300.43 275.06 1348.77 274.6 1405.87"/>
          <line class="cls-8" x1="335.72" y1="1273.05" x2="255.53" y2="1337.98"/>
          <line class="cls-8" x1="336.42" y1="1282.22" x2="262.1" y2="1341.27"/>
          <polyline class="cls-8" points="186.56 1416.86 135.38 1458.41 194.67 1483.75 248.39 1447.77 186.56 1416.86 186.56 1405.71 248.9 1436.12 248.9 1394.56 277.79 1407.73 277.79 1420.91 335.92 1379.68 335.8 1188.56 556.99 990.88"/>
          <polyline class="cls-8" points="135.38 1458.41 135.36 1445.88 186.56 1405.71"/>
          <polygon points="76.52 1567.53 1.31 1544.83 76.18 1482.5 134.11 1505.53 76.86 1546.52 76.52 1567.53"/>
          <polygon points="685.74 1728.78 700.55 1723.46 643.58 1701.06 627.25 1707.13 685.74 1728.78"/>
          <polygon points="414.78 1393.4 396.57 1382.63 555.37 1280.34 644.03 1367.53 710.27 1332.94 765.8 1396.75 725.86 1414.78 718.84 1408.61 657.76 1436.5 566.88 1359.08 567.84 1315.32 556.73 1310.96 414.78 1393.4"/>
          <polyline class="cls-8" points="491.76 1716.89 374.1 1681.51 365.05 1686.03 302.52 1663 389.73 1631.32 543.18 1690.97 542.99 1827.16"/>
          <polygon points="190.67 1489.81 115.15 1541.41 124.59 1545.19 123.65 1580.43 159.21 1591.76 157.95 1518.13 190.36 1497.67 190.67 1489.81"/>
          <polyline class="cls-8" points="134.11 1505.53 134.11 1421.4 75.36 1397.69 76.18 1486.98"/>
          <polyline class="cls-8" points="1.31 1544.83 1.33 1535.49 42.48 1500.18 42.67 1439.35 3.89 1474.92 3.25 1463.71 74.97 1397.36"/>
          <polyline class="cls-8" points="76.86 1546.52 76.24 1632.09 114.29 1612.88 115.15 1541.41"/>
          <polyline class="cls-8" points="136.02 1349.61 136.15 1336.14 187.89 1287.86 262.97 1331.28"/>
          <polyline class="cls-8" points="76.15 1632.54 83.23 1636.51 122.41 1616.08 114.29 1612.88"/>
          <line class="cls-8" x1="122.41" y1="1616.08" x2="124.59" y2="1545.19"/>
          <polyline class="cls-8" points="691.34 992.17 771.75 1130.08 772.88 1286.82 806.57 1334.06 806.57 1378.96"/>
          <polyline class="cls-8" points="471.94 1290.7 395.77 1341.81 396.57 1382.63 395.77 1341.81 555.49 1234.91"/>
          <polyline class="cls-8" points="414.78 1393.4 396.01 1404.46 396.01 1466.79"/>
          <g>
            <line class="cls-8" x1="708.5" y1="1481.41" x2="566.88" y2="1359.08"/>
            <line class="cls-8" x1="708.51" y1="1484.44" x2="566.72" y2="1361.85"/>
            <line class="cls-8" x1="708.53" y1="1487.47" x2="566.55" y2="1364.62"/>
            <line class="cls-8" x1="708.54" y1="1490.51" x2="566.39" y2="1367.39"/>
            <line class="cls-8" x1="708.56" y1="1493.54" x2="566.23" y2="1370.16"/>
            <line class="cls-8" x1="708.57" y1="1496.57" x2="566.06" y2="1372.93"/>
            <line class="cls-8" x1="708.58" y1="1499.6" x2="565.9" y2="1375.7"/>
            <line class="cls-8" x1="708.6" y1="1502.63" x2="565.74" y2="1378.47"/>
            <line class="cls-8" x1="708.61" y1="1505.66" x2="565.57" y2="1381.24"/>
          </g>
          <polyline class="cls-8" points="484.47 1651.8 483.82 1541.32 388.41 1490.25 306.43 1532.92 299.04 1528.89 387.73 1482.19 489.87 1536.28 489.87 1654.87 389.75 1613.21 306.04 1643.79 306.93 1533.05"/>
          <g>
            <line class="cls-8" x1="555.87" y1="1111.89" x2="481.62" y2="1172.34"/>
            <line class="cls-8" x1="555.83" y1="1123.52" x2="481.62" y2="1182.89"/>
            <line class="cls-8" x1="555.8" y1="1135.15" x2="481.62" y2="1193.43"/>
            <line class="cls-8" x1="555.77" y1="1146.78" x2="481.62" y2="1203.98"/>
            <line class="cls-8" x1="555.74" y1="1158.41" x2="481.62" y2="1214.53"/>
            <line class="cls-8" x1="555.7" y1="1170.04" x2="481.62" y2="1225.07"/>
            <line class="cls-8" x1="555.67" y1="1181.67" x2="481.62" y2="1235.62"/>
            <line class="cls-8" x1="555.64" y1="1193.3" x2="481.62" y2="1246.16"/>
            <line class="cls-8" x1="555.6" y1="1204.93" x2="481.62" y2="1256.71"/>
            <line class="cls-8" x1="555.57" y1="1216.56" x2="481.62" y2="1267.25"/>
            <line class="cls-8" x1="555.54" y1="1228.19" x2="481.62" y2="1277.8"/>
          </g>
          <g>
            <line class="cls-8" x1="542.25" y1="1705.86" x2="378.64" y2="1745.03"/>
            <line class="cls-8" x1="542.3" y1="1715.17" x2="378.51" y2="1752.64"/>
            <line class="cls-8" x1="542.34" y1="1724.49" x2="378.38" y2="1760.26"/>
            <line class="cls-8" x1="542.39" y1="1733.8" x2="378.25" y2="1767.87"/>
            <line class="cls-8" x1="542.43" y1="1743.11" x2="378.12" y2="1775.49"/>
            <line class="cls-8" x1="542.47" y1="1752.42" x2="377.99" y2="1783.1"/>
            <line class="cls-8" x1="542.52" y1="1761.73" x2="377.86" y2="1790.71"/>
            <line class="cls-8" x1="542.56" y1="1771.05" x2="377.73" y2="1798.33"/>
            <line class="cls-8" x1="542.6" y1="1780.36" x2="377.6" y2="1805.94"/>
            <line class="cls-8" x1="542.65" y1="1789.67" x2="377.47" y2="1813.56"/>
            <line class="cls-8" x1="542.69" y1="1798.98" x2="377.34" y2="1821.17"/>
          </g>
          <polygon class="cls-8" points="685.61 1849.27 527.5 1825.78 350.98 1845.46 350.98 1856.26 528.14 1835.94 685.61 1860.7 685.61 1849.27"/>
          <polyline class="cls-8" points="700.55 1723.46 700.3 1649.4 646.19 1619.84 626.15 1628.86 626.15 1604.3 429.23 1494.07 556.73 1429.51"/>
          <line class="cls-8" x1="388.41" y1="1490.25" x2="389.75" y2="1613.21"/>
          <line class="cls-8" x1="143.54" y1="1359.05" x2="94.84" y2="1405.31"/>
          <line class="cls-8" x1="142.93" y1="1355.37" x2="91.33" y2="1403.69"/>
          <polyline class="cls-8" points="190.67 1489.81 191.69 1602.66 153.09 1621.96 154.57 1736.75 142.2 1741.7 142.2 1671.44 75.48 1699.52 75.12 1882.89"/>
          <polyline class="cls-5" points="758.35 1376.13 759.79 1272.07 708.3 1200.42 706.14 1320.68"/>
          <polyline class="cls-8" points="708.3 1200.42 651.41 1237.15 650.94 1349.52"/>
          <g>
            <line class="cls-8" x1="289.68" y1="1579.83" x2="239.44" y2="1603.02"/>
            <line class="cls-8" x1="289.68" y1="1587.03" x2="239.39" y2="1609.81"/>
            <line class="cls-8" x1="289.68" y1="1594.24" x2="239.33" y2="1616.6"/>
            <line class="cls-8" x1="289.68" y1="1601.44" x2="239.28" y2="1623.39"/>
            <line class="cls-8" x1="289.68" y1="1608.65" x2="239.22" y2="1630.18"/>
            <line class="cls-8" x1="289.68" y1="1615.85" x2="239.17" y2="1636.97"/>
            <line class="cls-8" x1="289.68" y1="1623.06" x2="239.11" y2="1643.76"/>
            <line class="cls-8" x1="289.68" y1="1630.26" x2="239.06" y2="1650.55"/>
            <line class="cls-8" x1="289.68" y1="1637.47" x2="239" y2="1657.34"/>
            <line class="cls-8" x1="289.68" y1="1644.67" x2="238.95" y2="1664.13"/>
            <line class="cls-8" x1="289.68" y1="1651.87" x2="238.89" y2="1670.92"/>
          </g>
          <line class="cls-8" x1="153.52" y1="1676.16" x2="142.2" y2="1671.44"/>
          <line class="cls-8" x1="157.95" y1="1518.13" x2="160.88" y2="1616.95"/>
          <line class="cls-8" x1="374.1" y1="1681.51" x2="374.1" y2="1823.24"/>
          <line class="cls-8" x1="685.61" y1="1849.27" x2="685.61" y2="1959.91"/>
          <line class="cls-8" x1="671.27" y1="1857.64" x2="667.8" y2="2061.19"/>
          <polyline class="cls-8" points="556.08 1104.33 560.86 1107.55 561.22 1239.04"/>
        </g>
      </g>
      <rect class="cls-14" x="143.34" y="810.39" width="798.19" height="127.51"/>
      <text class="cls-2" transform="translate(177.26 906.04)"><tspan class="cls-16" x="0" y="0">ww</tspan><tspan class="cls-10" x="72.37" y="0">w</tspan><tspan x="106.32" y="0">.arc</tspan><tspan class="cls-19" x="180.1" y="0">h</tspan><tspan class="cls-24" x="205.44" y="0">viz-daka</tspan><tspan class="cls-11" x="373.15" y="0">r</tspan><tspan x="388.23" y="0">.</tspan><tspan class="cls-17" x="399.44" y="0">c</tspan><tspan x="420.04" y="0">om</tspan></text>
      <text class="cls-1" transform="translate(177.26 859.76)"><tspan x="0" y="0">Plus d’infos sur</tspan></text>
      <text/>
    </g>
  </g>
</svg>